<svg xmlns="http://www.w3.org/2000/svg" viewBox="0 0 28 28" fill="none" stroke-linecap="round" stroke-linejoin="round" data-lit="2">
<defs><linearGradient id="g-IC-projgeo-ss" x1="0" y1="0" x2="0.4" y2="1"><stop offset="0" stop-color="#595E64"/><stop offset="1" stop-color="#54595F"/></linearGradient>
<linearGradient id="g-IC-projgeo-sl" x1="0" y1="0" x2="0.4" y2="1"><stop offset="0" stop-color="#9BA0A6"/><stop offset="1" stop-color="#93999F"/></linearGradient>
<linearGradient id="g-IC-projgeo-st" x1="0" y1="0" x2="1" y2="1"><stop offset="0" stop-color="#ECEDEE"/><stop offset="1" stop-color="#E1E3E5"/></linearGradient>
<linearGradient id="g-IC-projgeo-hl" gradientUnits="userSpaceOnUse" x1="4.13" y1="0" x2="22.87" y2="0"><stop offset="0" stop-color="#FFFFFF" stop-opacity="0.8"/><stop offset="1" stop-color="#FFFFFF" stop-opacity="0.15"/></linearGradient>
<linearGradient id="g-IC-projgeo-ab" gradientUnits="userSpaceOnUse" x1="11" y1="6.85" x2="10.3" y2="10.65"><stop offset="0" stop-color="#D0E0F1"/><stop offset="1" stop-color="#3776B9"/></linearGradient></defs>
<path d="M4 6.1Q4 5.5 4.54 5.23L9.46 2.77Q10 2.5 10.54 2.77L22.46 8.73Q23 9 23 9.6L23 13.9Q23 14.5 22.46 14.77L17.54 17.23Q17 17.5 16.46 17.23L4.54 11.27Q4 11 4 10.4Z" fill="url(#g-IC-projgeo-ss)"/>
<path d="M17 12L22.87 9.08Q23 9.3 23 9.6L23 13.9Q23 14.5 22.46 14.77L17.54 17.23Q17.27 17.37 17 17.37Z" fill="url(#g-IC-projgeo-ss)"/>
<path d="M4 6.1Q4 5.8 4.13 5.58L17 12L17 17.37Q16.73 17.37 16.46 17.23L4.54 11.27Q4 11 4 10.4Z" fill="url(#g-IC-projgeo-sl)"/>
<path d="M9.46 2.77Q10 2.5 10.54 2.77L22.46 8.73Q22.73 8.87 22.87 9.08L17 12L4.13 5.58Q4.27 5.37 4.54 5.23Z" fill="url(#g-IC-projgeo-st)"/>
<path d="M4.13 5.58L17 12L22.87 9.08" stroke="url(#g-IC-projgeo-hl)" stroke-width="0.6"/>
<path d="M5.75 4.62L18.75 11.12L17 12L17 13.75L4 7.25Q4 5.5 5.75 4.62Z" fill="url(#g-IC-projgeo-ab)"/>
<path d="M4 12.5L4 16.75M17 19L17 23.25" stroke="#8C8C8C" stroke-width="1.25" stroke-dasharray="2.5 2" stroke-linecap="butt"/>
<path d="M4 18L17 24.5" stroke="#6AA9ED" stroke-width="1.5"/>
</svg>
