<svg xmlns="http://www.w3.org/2000/svg" viewBox="0 0 28 28" fill="none" stroke-linecap="round" stroke-linejoin="round"><path d="M14 14.5 L18.5 16.75 L18.5 12.25 L14 10Z" fill="#ED8D26" fill-opacity=".3"/><path d="M14 14.5 L9.5 16.75 L9.5 12.25 L14 10Z" fill="#ED8D26" fill-opacity=".3"/><path d="M14 14.5 L18.5 16.75 L14 19 L9.5 16.75Z" fill="#ED8D26" fill-opacity=".3"/><path d="M14 14.5 L18.5 16.75 L18.5 12.25 L14 10Z" stroke="#ED8D26" stroke-width="1.25"/><path d="M14 14.5 L9.5 16.75 L9.5 12.25 L14 10Z" stroke="#ED8D26" stroke-width="1.25"/><path d="M14 14.5 L18.5 16.75 L14 19 L9.5 16.75Z" stroke="#ED8D26" stroke-width="1.25"/><path d="M20 17.5 L21.48 18.24" stroke="#E0E0E0" stroke-width="2.0"/><path d="M25.5 20.25 L20.36 20.47 L22.59 16 Z" fill="#E0E0E0" stroke="#E0E0E0" stroke-width="1"/><path d="M8 17.5 L6.52 18.24" stroke="#E0E0E0" stroke-width="2.0"/><path d="M2.5 20.25 L5.41 16 L7.64 20.47 Z" fill="#E0E0E0" stroke="#E0E0E0" stroke-width="1"/><path d="M14 8.5 L14 7" stroke="#E0E0E0" stroke-width="2.0"/><path d="M14 2.5 L16.5 7 L11.5 7 Z" fill="#E0E0E0" stroke="#E0E0E0" stroke-width="1"/><circle cx="14" cy="14.5" r="2.25" fill="#ED8D26"/></svg>
