<svg xmlns="http://www.w3.org/2000/svg" viewBox="0 0 28 28" fill="none" stroke-linecap="round" stroke-linejoin="round" data-lit="2">
<defs><linearGradient id="g-VW-floor-ss" x1="0" y1="0" x2="0.4" y2="1"><stop offset="0" stop-color="#595E64"/><stop offset="1" stop-color="#54595F"/></linearGradient>
<linearGradient id="g-VW-floor-sl" x1="0" y1="0" x2="0.4" y2="1"><stop offset="0" stop-color="#9BA0A6"/><stop offset="1" stop-color="#93999F"/></linearGradient>
<linearGradient id="g-VW-floor-st" x1="0" y1="0" x2="1" y2="1"><stop offset="0" stop-color="#ECEDEE"/><stop offset="1" stop-color="#E1E3E5"/></linearGradient>
<linearGradient id="g-VW-floor-hl" gradientUnits="userSpaceOnUse" x1="8.63" y1="0" x2="19.37" y2="0"><stop offset="0" stop-color="#FFFFFF" stop-opacity="0.8"/><stop offset="1" stop-color="#FFFFFF" stop-opacity="0.15"/></linearGradient></defs>
<path d="M8.5 6.85Q8.5 6.25 9.04 5.98L13.46 3.77Q14 3.5 14.54 3.77L18.96 5.98Q19.5 6.25 19.5 6.85L19.5 13.15Q19.5 13.75 18.96 14.02L14.54 16.23Q14 16.5 13.46 16.23L9.04 14.02Q8.5 13.75 8.5 13.15Z" fill="url(#g-VW-floor-ss)"/>
<path d="M14 9L19.37 6.33Q19.5 6.55 19.5 6.85L19.5 13.15Q19.5 13.75 18.96 14.02L14.54 16.23Q14.27 16.37 14 16.37Z" fill="url(#g-VW-floor-ss)"/>
<path d="M8.5 6.85Q8.5 6.55 8.63 6.33L14 9L14 16.37Q13.73 16.37 13.46 16.23L9.04 14.02Q8.5 13.75 8.5 13.15Z" fill="url(#g-VW-floor-sl)"/>
<path d="M13.46 3.77Q14 3.5 14.54 3.77L18.96 5.98Q19.23 6.12 19.37 6.33L14 9L8.63 6.33Q8.77 6.12 9.04 5.98Z" fill="url(#g-VW-floor-st)"/>
<path d="M8.63 6.33L14 9L19.37 6.33" stroke="url(#g-VW-floor-hl)" stroke-width="0.6"/>
<path d="M7.39 12.31L3 14.5M20.61 12.31L25 14.5M8.9 15.22L6.67 16.33M19.1 15.22L21.33 16.33M21.33 12.67L20.61 13.03M12.56 17.05L10.33 18.17M6.67 12.67L7.39 13.03M15.44 17.05L17.67 18.17M25 14.5L14 20M3 14.5L14 20" stroke="#8C8C8C" stroke-width="1.25"/>
</svg>
