<svg xmlns="http://www.w3.org/2000/svg" viewBox="0 0 28 28" fill="none" stroke-linecap="round" stroke-linejoin="round" data-lit="2">
<defs><linearGradient id="g-DE-deDelete-ss" x1="0" y1="0" x2="0.4" y2="1"><stop offset="0" stop-color="#595E64"/><stop offset="1" stop-color="#54595F"/></linearGradient>
<linearGradient id="g-DE-deDelete-sl" x1="0" y1="0" x2="0.4" y2="1"><stop offset="0" stop-color="#9BA0A6"/><stop offset="1" stop-color="#93999F"/></linearGradient>
<linearGradient id="g-DE-deDelete-st" x1="0" y1="0" x2="1" y2="1"><stop offset="0" stop-color="#ECEDEE"/><stop offset="1" stop-color="#E1E3E5"/></linearGradient>
<linearGradient id="g-DE-deDelete-hl" gradientUnits="userSpaceOnUse" x1="3.88" y1="0" x2="20.62" y2="0"><stop offset="0" stop-color="#FFFFFF" stop-opacity="0.8"/><stop offset="1" stop-color="#FFFFFF" stop-opacity="0.15"/></linearGradient></defs>
<path d="M3.75 10.6Q3.75 10 4.29 9.73L10.71 6.52Q11.25 6.25 11.79 6.52L20.21 10.73Q20.75 11 20.75 11.6L20.75 17.9Q20.75 18.5 20.21 18.77L13.79 21.98Q13.25 22.25 12.71 21.98L4.29 17.77Q3.75 17.5 3.75 16.9Z" fill="url(#g-DE-deDelete-ss)"/>
<path d="M13.25 14.75L20.62 11.08Q20.75 11.3 20.75 11.6L20.75 17.9Q20.75 18.5 20.21 18.77L13.79 21.98Q13.52 22.12 13.25 22.12Z" fill="url(#g-DE-deDelete-ss)"/>
<path d="M3.75 10.6Q3.75 10.3 3.88 10.08L13.25 14.75L13.25 22.12Q12.98 22.12 12.71 21.98L4.29 17.77Q3.75 17.5 3.75 16.9Z" fill="url(#g-DE-deDelete-sl)"/>
<path d="M10.71 6.52Q11.25 6.25 11.79 6.52L20.21 10.73Q20.48 10.87 20.62 11.08L13.25 14.75L3.88 10.08Q4.02 9.87 4.29 9.73Z" fill="url(#g-DE-deDelete-st)"/>
<path d="M3.88 10.08L13.25 14.75L20.62 11.08" stroke="url(#g-DE-deDelete-hl)" stroke-width="0.6"/>
<path d="M11.25 6.25L15.25 4.25L24.75 9L24.75 16.5L20.75 18.5" stroke="#8C8C8C" stroke-width="1.25" stroke-dasharray="2.5 2" stroke-linecap="butt"/>
<path d="M24.75 9L20.75 11" stroke="#8C8C8C" stroke-width="1.25" stroke-dasharray="2.5 2" stroke-linecap="butt"/>
<path d="M19 22.5L26 22.5" stroke="#D6D6D6" stroke-width="2"/>
</svg>
